<svg data-logo="logo" xmlns="http://www.w3.org/2000/svg" viewBox="0 0 281.17999267578125 43.84">
        <g id="logogram" transform="     translate(0, 1.4200000000000017)     rotate(0 34 20.5)        "><path d="M45.8693 4.61295C46.667 3.72652 47.5535 2.99522 48.4621 2.41904C50.0576 1.42181 51.7418 0.889954 53.4704 0.889954V15.3609C52.2072 10.9731 49.4814 7.20574 45.8693 4.61295ZM67.3873 40.89H16.1296C7.7086 40.89 0.905273 34.0645 0.905273 25.6656C0.905273 17.6213 7.15458 11.0174 15.0659 10.4634V0.889954C16.8388 0.889954 18.5895 1.39965 20.2294 2.41904C21.138 2.97306 22.0244 3.70436 22.8222 4.54646C26.0798 2.26391 30.0244 0.934275 34.3014 0.934275C34.3014 10.1753 30.9773 20.9232 20.1629 20.9454H34.1906C33.7917 19.1503 32.1518 17.8207 30.2017 17.7985H38.3568C36.4067 17.7985 34.7668 19.1503 34.3679 20.9675H47.4427C50.0576 20.9675 52.6504 21.4772 55.0881 22.4966C57.5036 23.4938 59.7197 24.9786 61.559 26.8179C63.4205 28.6794 64.8831 30.8733 65.8803 33.2888C66.8776 35.6822 67.3873 38.275 67.3873 40.89ZM23.6864 10.7293C24.0188 11.5936 24.9053 12.5686 26.1463 13.2778C27.3873 13.9869 28.6726 14.275 29.5812 14.142C29.2488 13.2778 28.3623 12.3027 27.1213 11.5936C25.8803 10.8844 24.595 10.5963 23.6864 10.7293ZM42.3457 13.2778C41.1047 13.9869 39.8194 14.275 38.9108 14.142C39.2432 13.2778 40.1297 12.3027 41.3706 11.5936C42.6116 10.8844 43.897 10.5963 44.8055 10.7293C44.4953 11.5936 43.5867 12.5686 42.3457 13.2778Z" fill="#283841"/></g>
        <g id="logotype" transform="translate(74, 0.5)"><path fill="#ffffff" d="M30.12 13.05L20.39 35.49L10.59 13.02L8.94 31.43Q8.80 32.83 9.75 33.70Q10.69 34.58 12.05 34.65L12.05 34.65L12.05 35L5.05 35L5.05 34.65Q6.38 34.58 7.29 33.67Q8.21 32.76 8.35 31.39L8.35 31.39L10.10 12.04Q9.43 10.67 8.43 9.89Q7.44 9.10 5.86 9.10L5.86 9.10L5.86 8.75L14.26 8.75L22.80 28.52L31.34 8.75L37.89 8.75L37.89 9.10Q36.77 9.10 36.00 9.76Q35.23 10.43 35.30 11.58L35.30 11.58L37.08 32.30Q37.26 33.49 38.22 34.09Q39.18 34.69 40.13 34.69L40.13 34.69L40.13 35L29.28 35L29.28 34.69Q29.87 34.69 30.50 34.41Q31.13 34.13 31.53 33.60Q31.94 33.08 31.83 32.38L31.83 32.38L30.12 13.05ZM39.67 42.84L39.67 42.84Q38.23 42.84 36.91 42.28L36.91 42.28L38.27 38.19Q39.15 38.53 40.18 38.78Q41.21 39.02 42.26 39.02L42.26 39.02Q43.59 39.02 44.76 38.48Q45.94 37.94 46.53 36.47L46.53 36.47L46.91 35.52L39.98 19.46Q39.63 18.62 39.06 18.11Q38.48 17.60 37.47 17.57L37.47 17.57L37.47 17.22L47.58 17.22L47.58 17.57Q46.63 17.67 46.13 18.23Q45.62 18.79 45.62 19.67L45.62 19.67Q45.62 20.44 45.97 21.24L45.97 21.24L49.51 29.54L53.04 21.24Q53.39 20.44 53.39 19.67L53.39 19.67Q53.39 18.79 52.88 18.23Q52.38 17.67 51.40 17.57L51.40 17.57L51.40 17.22L56.23 17.22L56.23 17.57Q55.42 17.74 54.86 18.60Q54.30 19.46 53.67 20.93L53.67 20.93L46.53 37.52Q45.41 40.11 43.63 41.48Q41.84 42.84 39.67 42.84ZM73.44 35L62.38 35L62.38 34.65Q63.64 34.65 64.41 33.88Q65.19 33.11 65.19 31.85L65.19 31.85L65.19 11.90Q65.19 10.64 64.41 9.87Q63.64 9.10 62.38 9.10L62.38 9.10L62.38 8.75L74.08 8.75Q76.77 8.78 78.78 9.68Q80.80 10.57 81.93 12.14Q83.07 13.72 83.07 15.85L83.07 15.85Q83.07 17.99 81.93 19.58Q80.80 21.17 78.71 22.07Q76.63 22.96 73.80 22.96L73.80 22.96L70.58 22.96L70.58 31.85Q70.58 33.11 71.34 33.88Q72.11 34.65 73.38 34.65L73.38 34.65L73.44 34.65L73.44 35ZM70.58 9.20L70.58 22.50L72.64 22.50Q74.14 22.50 75.25 21.65Q76.35 20.79 76.96 19.28Q77.58 17.78 77.58 15.85L77.58 15.85Q77.58 13.93 76.96 12.42Q76.35 10.92 75.23 10.06Q74.11 9.20 72.61 9.20L72.61 9.20L70.58 9.20ZM92.17 35.49L92.17 35.49Q89.30 35.49 87.15 34.34Q85.00 33.18 83.80 31.08Q82.61 28.98 82.61 26.11L82.61 26.11Q82.61 23.24 83.80 21.14Q85.00 19.04 87.15 17.88Q89.30 16.73 92.17 16.73L92.17 16.73Q95.04 16.73 97.17 17.88Q99.31 19.04 100.50 21.14Q101.69 23.24 101.69 26.11L101.69 26.11Q101.69 28.98 100.50 31.08Q99.31 33.18 97.17 34.34Q95.04 35.49 92.17 35.49ZM92.13 35.03L92.13 35.03Q93.36 35.03 94.23 33.81Q95.11 32.59 95.60 30.54Q96.09 28.49 96.09 26.07L96.09 26.07Q96.09 23.45 95.58 21.44Q95.08 19.42 94.18 18.29Q93.29 17.15 92.17 17.15L92.17 17.15Q90.98 17.15 90.09 18.38Q89.19 19.60 88.70 21.63Q88.22 23.66 88.22 26.07L88.22 26.07Q88.22 28.73 88.74 30.77Q89.27 32.80 90.16 33.91Q91.05 35.03 92.13 35.03ZM112.89 35L102.18 35L102.18 34.65L102.22 34.65Q103.47 34.65 104.25 33.88Q105.02 33.11 105.02 31.85L105.02 31.85L105.02 20.37Q105.02 19.04 104.47 18.30Q103.93 17.57 102.18 17.57L102.18 17.57L102.18 17.22L105.64 17.22Q107.50 17.22 108.44 16.85Q109.39 16.48 109.78 15.89L109.78 15.89L109.95 15.89L109.98 21.63Q110.44 20.58 111.16 19.42Q111.88 18.27 112.98 17.48Q114.08 16.69 115.62 16.69L115.62 16.69Q116.14 16.69 116.74 16.80Q117.34 16.90 118 17.18L118 17.18L116.64 21.28Q115.38 20.58 114.45 20.30Q113.52 20.02 112.82 20.02L112.82 20.02Q111.63 20.02 111.05 20.75Q110.47 21.49 110.06 22.50L110.06 22.50L110.06 31.85Q110.06 33.11 110.83 33.88Q111.59 34.65 112.86 34.65L112.86 34.65L112.89 34.65L112.89 35ZM125.42 35.49L125.42 35.49Q123.60 35.49 122.45 34.34Q121.29 33.18 121.29 31.32L121.29 31.32L121.29 17.85L118.31 17.85L118.31 17.39Q120.73 17.22 122.64 15.85Q124.55 14.49 125.77 12.18L125.77 12.18L126.33 12.18L126.33 17.22L130.99 17.22L130.63 17.85L126.33 17.85L126.33 30.55Q126.33 33.35 128.22 33.35L128.22 33.35Q128.85 33.35 129.67 32.97Q130.50 32.59 131.23 31.95L131.23 31.95L131.23 32.30Q130.08 33.77 128.50 34.63Q126.93 35.49 125.42 35.49ZM143.09 35L131.69 35L131.69 34.65Q132.94 34.65 133.73 33.88Q134.52 33.11 134.52 31.85L134.52 31.85L134.52 17.85L131.55 17.85L131.90 17.22L134.52 17.22L134.52 16.41Q134.52 13.75 135.41 11.81Q136.31 9.87 137.95 8.78Q139.59 7.70 141.84 7.70L141.84 7.70Q143.38 7.70 144.76 8.17Q146.14 8.64 147.14 9.47Q148.13 10.29 148.56 11.37L148.56 11.37L144.36 13.75Q144.32 12.49 144.16 11.48Q144.00 10.46 143.66 9.69L143.66 9.69Q142.96 8.15 141.87 8.15L141.87 8.15Q140.75 8.15 140.19 9.87L140.19 9.87Q139.56 11.58 139.56 14.56L139.56 14.56L139.56 17.22L144.28 17.22L143.94 17.85L139.56 17.85L139.56 31.85Q139.56 33.11 140.52 33.88Q141.49 34.65 143.06 34.65L143.06 34.65L143.09 34.65L143.09 35ZM153.00 35.49L153.00 35.49Q150.13 35.49 147.98 34.34Q145.83 33.18 144.64 31.08Q143.45 28.98 143.45 26.11L143.45 26.11Q143.45 23.24 144.64 21.14Q145.83 19.04 147.98 17.88Q150.13 16.73 153.00 16.73L153.00 16.73Q155.87 16.73 158.01 17.88Q160.14 19.04 161.33 21.14Q162.52 23.24 162.52 26.11L162.52 26.11Q162.52 28.98 161.33 31.08Q160.14 33.18 158.01 34.34Q155.87 35.49 153.00 35.49ZM152.97 35.03L152.97 35.03Q154.19 35.03 155.07 33.81Q155.94 32.59 156.43 30.54Q156.92 28.49 156.92 26.07L156.92 26.07Q156.92 23.45 156.41 21.44Q155.91 19.42 155.01 18.29Q154.12 17.15 153.00 17.15L153.00 17.15Q151.81 17.15 150.92 18.38Q150.03 19.60 149.54 21.63Q149.05 23.66 149.05 26.07L149.05 26.07Q149.05 28.73 149.57 30.77Q150.10 32.80 150.99 33.91Q151.88 35.03 152.97 35.03ZM173.51 35L162.80 35L162.80 34.65Q164.06 34.65 164.85 33.90Q165.64 33.15 165.64 31.85L165.64 31.85L165.64 11.90Q165.64 10.64 164.85 9.87Q164.06 9.10 162.80 9.10L162.80 9.10L162.80 8.75L166.37 8.75Q168.16 8.75 169.10 8.36L169.10 8.36Q169.98 7.98 170.33 7.42L170.33 7.42L170.68 7.42L170.68 31.85Q170.68 33.15 171.46 33.90Q172.25 34.65 173.51 34.65L173.51 34.65L173.51 35ZM183.87 35L173.16 35L173.16 34.65L173.20 34.65Q174.46 34.65 175.23 33.88Q176.00 33.11 176.00 31.85L176.00 31.85L176.00 20.37Q176.00 19.04 175.45 18.30Q174.91 17.57 173.16 17.57L173.16 17.57L173.16 17.22L176.73 17.22Q178.52 17.22 179.46 16.83L179.46 16.83Q180.34 16.45 180.69 15.89L180.69 15.89L181.04 15.89L181.04 31.85Q181.04 33.11 181.81 33.88Q182.58 34.65 183.84 34.65L183.84 34.65L183.87 34.65L183.87 35ZM178.48 13.68L178.48 13.68Q177.22 13.68 176.40 12.86Q175.58 12.04 175.58 10.78L175.58 10.78Q175.58 9.52 176.40 8.70Q177.22 7.87 178.48 7.87L178.48 7.87Q179.71 7.87 180.53 8.71Q181.35 9.55 181.35 10.78L181.35 10.78Q181.35 12.00 180.53 12.84Q179.71 13.68 178.48 13.68ZM193.71 35.49L193.71 35.49Q190.84 35.49 188.68 34.34Q186.53 33.18 185.34 31.08Q184.15 28.98 184.15 26.11L184.15 26.11Q184.15 23.24 185.34 21.14Q186.53 19.04 188.68 17.88Q190.84 16.73 193.71 16.73L193.71 16.73Q196.58 16.73 198.71 17.88Q200.85 19.04 202.04 21.14Q203.23 23.24 203.23 26.11L203.23 26.11Q203.23 28.98 202.04 31.08Q200.85 33.18 198.71 34.34Q196.58 35.49 193.71 35.49ZM193.67 35.03L193.67 35.03Q194.90 35.03 195.77 33.81Q196.65 32.59 197.14 30.54Q197.63 28.49 197.63 26.07L197.63 26.07Q197.63 23.45 197.12 21.44Q196.61 19.42 195.72 18.29Q194.83 17.15 193.71 17.15L193.71 17.15Q192.52 17.15 191.62 18.38Q190.73 19.60 190.24 21.63Q189.75 23.66 189.75 26.07L189.75 26.07Q189.75 28.73 190.28 30.77Q190.80 32.80 191.69 33.91Q192.59 35.03 193.67 35.03Z"/></g>
        
      </svg>